# xmcd
#
# Track frame offsets:
#	150
#	15517
#	28583
#	43971
#	57571
#	72259
#	89354
#	105495
#	118676
#	132671
#	150830
#	167961
#	181050
#	195953
#
# Disc length: 2843 seconds
#
# Revision: 1
# Processed by: cddbd v1.5.2PL0 Copyright (c) Steve Scherf et al.
# Submitted via: audiograbber 1.83.01
#
DISCID=b60b190e
DTITLE=Various Artist - Die Grössten Schlagerstars CD3 2507
DYEAR=1900
DGENRE=
TTITLE0=Andy Borg - Ciao Ciao Amore
TTITLE1=Géraldine Olivier - Himmelblaue Augen
TTITLE2=Frank Galan - Schenk Mir Deine Liebe
TTITLE3=Sigrid and Marina - Einfach Glücklich Sein
TTITLE4=Reiner Kirsten - Ich Pfeif Ein Lied...
TTITLE5=Astrid Harzbecker - Dann Ruf Ich Wieder Deinen Namen
TTITLE6=Ricky Berger - Du Bist Wie Gold Für Mich
TTITLE7=Monique - Ein Cappuccino Bei Nino
TTITLE8=Silvio Samoni - Aber Schön Wer Es Doch
TTITLE9=Michaela - Aloha Oe
TTITLE10=Nina and Mike - Rund Um Die Welt Geht Das Lied Der Liebe
TTITLE11=Peter Kraus - Wenn Teenager Träumen
TTITLE12=Roy Black - Das Mädchen Carina
TTITLE13=Rudy Giovannini - Goodby My Love, Goodbye
EXTD=
EXTT0=
EXTT1=
EXTT2=
EXTT3=
EXTT4=
EXTT5=
EXTT6=
EXTT7=
EXTT8=
EXTT9=
EXTT10=
EXTT11=
EXTT12=
EXTT13=
PLAYORDER=
